<?xml version="1.0" encoding="UTF-8" standalone="no"?><!DOCTYPE svg PUBLIC "-//W3C//DTD SVG 1.1//EN" "http://www.w3.org/Graphics/SVG/1.1/DTD/svg11.dtd"><svg width="100%" height="100%" viewBox="0 0 2188 367" version="1.1" xmlns="http://www.w3.org/2000/svg" xmlns:xlink="http://www.w3.org/1999/xlink" xml:space="preserve" xmlns:serif="http://www.serif.com/" style="fill-rule:evenodd;clip-rule:evenodd;stroke-linejoin:round;stroke-miterlimit:2;"><path d="M205.62,40.158c1.002,-3.738 0.39,-7.725 -1.687,-10.99c-2.078,-3.265 -5.43,-5.509 -9.241,-6.184c-76.152,-12.504 -150.88,34.522 -171.27,110.618c-21.685,80.928 26.413,164.237 107.342,185.922c71.143,19.063 144.878,-15.716 176.119,-80.866c1.624,-3.484 1.711,-7.491 0.24,-11.043c-1.472,-3.552 -4.367,-6.323 -7.979,-7.638c0.032,-0.089 0.032,-0.089 0.032,-0.089c-6.667,-2.424 -14.083,0.642 -17.09,7.068c-25.582,53.35 -85.976,81.789 -144.25,66.174c-66.361,-17.781 -105.802,-86.094 -88.021,-152.456c16.701,-62.327 77.857,-100.871 140.212,-90.659c6.945,1.218 13.67,-3.07 15.495,-9.881c0.097,0.026 0.098,0.025 0.098,0.024Z" style="fill:#fff;"/><path d="M427.161,213.995c7.417,-0 13.43,-6.013 13.43,-13.429c-0,-0.3 -0,-0.6 -0,-0.9c-0,-7.416 -6.013,-13.429 -13.43,-13.429c-47.266,0 -205.629,0 -252.895,0c-7.417,0 -13.43,6.013 -13.43,13.429c0,0.3 0,0.6 0,0.9c0,7.416 6.013,13.429 13.43,13.429c47.266,-0 205.629,-0 252.895,-0Z" style="fill:#fff;"/><path d="M471.382,91.87c-9.305,-34.717 -40.767,-58.857 -76.71,-58.857c-0.003,-0 -0.007,-0 -0.01,-0c-35.944,-0 -67.408,24.142 -76.711,58.862c-7.06,26.348 -14.756,55.07 -19.094,71.262c-0.926,3.454 -0.441,7.135 1.347,10.232c1.788,3.098 4.734,5.358 8.189,6.283c0.239,0.065 0.479,0.129 0.719,0.193c7.192,1.927 14.584,-2.339 16.514,-9.53c4.502,-16.773 12.527,-46.668 19.056,-70.994c6.104,-22.741 26.717,-38.551 50.263,-38.551c0.002,0 0.003,0 0.005,0c23.621,0 44.29,15.885 50.369,38.71c16.232,60.944 46.964,176.325 57.302,215.142c0.925,3.471 3.196,6.43 6.31,8.22c3.113,1.79 6.813,2.264 10.278,1.317c0.167,-0.046 0.335,-0.092 0.503,-0.138c7.158,-1.957 11.389,-9.33 9.468,-16.498c-10.002,-37.319 -39.333,-146.757 -57.798,-215.653Z" style="fill:#fff;"/><g transform="matrix(2.76927,0,0,2.76927,108.658,-26.2807)"><text x="142.931px" y="68.492px" style="font-family:'FuturistFixedWidth Regular', 'Futurist Fixed-width';font-size:61.867px;fill:#fff;">GOLEM</text><text x="204.797px" y="130.358px" style="font-family:'FuturistFixedWidth Regular', 'Futurist Fixed-width';font-size:61.867px;fill:#fff;">ANALYTICS</text></g></svg>